<svg enable-background="new 0 0 128 128" viewBox="0 0 128 128" xmlns="http://www.w3.org/2000/svg"><g id="Icon" display="none"><g display="inline"><g><g><path d="m114.127 67.915c1.896-1.685 4.406-2.442 6.904-2.599.9-.057 1.804-.051 2.703.02.162.013.987.103.578.051.097.012.193.028.289.045 1.421.256 2.568-1.369 1.459-2.507-2.258-2.318-5.121-3.808-8.385-3.95-2.547-.11-4.716.722-7.042 1.595-2.358.885-5.639 1.458-7.696-.309-.212-.182-.098-.048-.163-.198.263.605.002-.679-.004-.73-.118-.97-.263-1.937-.448-2.897-.385-2.003-.941-3.961-1.637-5.877-.349.615-.698 1.23-1.048 1.845 4.871-1.071 8.168-5.231 9.648-9.796.711-2.193 2.068-3.958 3.889-5.368.915-.709 1.926-1.311 2.962-1.826.173-.086.348-.166.522-.25.074-.035.537-.235.164-.078.13-.055.262-.108.396-.156 1.347-.484 1.499-2.469 0-2.893-3.121-.883-6.352-.739-9.254.773-2.051 1.069-3.579 2.691-4.971 4.494-1.731 2.241-4.216 4.311-7.148 3.984-.253-.028-.037.041-.209-.075.44.296-.498-.78-.612-.929-.52-.679-1.056-1.345-1.616-1.991-1.335-1.539-2.797-2.954-4.356-4.264v2.121c3.62-3.311 4.479-8.482 3.513-13.126-.468-2.251-.278-4.368.544-6.526.429-1.126 1.016-2.198 1.675-3.205.202-.308.412-.611.632-.906.147-.198-.123.138.133-.165.941-1.114.068-2.891-1.459-2.507-5.255 1.321-8.79 5.436-9.548 10.756-.373 2.618-1.093 6.801-4.018 7.853-.153.055-.326.098-.486.125.153-.016.145-.016-.025-.001.366.059.302.005-.19-.162-.892-.486-1.93-.812-2.885-1.15-2.024-.716-4.102-1.24-6.215-1.612.349.615.698 1.23 1.048 1.845 1.525-4.84-.47-9.76-3.735-13.375-1.586-1.755-2.406-3.979-2.66-6.316-.116-1.069-.125-2.155-.052-3.228.022-.317.053-.633.09-.949-.05.419.003-.009.02-.105.256-1.421-1.369-2.568-2.507-1.459-2.318 2.258-3.808 5.121-3.95 8.385-.11 2.547.722 4.716 1.595 7.042.885 2.357 1.458 5.639-.309 7.696-.182.212-.048.098-.198.163.605-.263-.679-.002-.73.004-.97.118-1.937.263-2.897.448-2.003.385-3.961.941-5.877 1.637.615.349 1.23.698 1.845 1.048-1.071-4.871-5.231-8.168-9.796-9.648-2.193-.711-3.958-2.068-5.368-3.889-.709-.915-1.311-1.926-1.826-2.962-.086-.173-.166-.348-.25-.522-.035-.074-.235-.537-.078-.164-.055-.13-.108-.262-.156-.396-.484-1.347-2.469-1.499-2.893 0-.883 3.121-.739 6.352.773 9.254 1.069 2.051 2.691 3.579 4.494 4.971 2.241 1.731 4.311 4.216 3.984 7.148-.028.253.041.037-.075.209.296-.44-.78.498-.929.612-.679.52-1.345 1.056-1.991 1.616-1.539 1.335-2.954 2.797-4.264 4.356h2.121c-3.311-3.62-8.482-4.479-13.126-3.513-2.251.468-4.368.278-6.526-.544-1.126-.429-2.198-1.016-3.205-1.675-.308-.202-.611-.412-.906-.632-.198-.147.138.123-.165-.133-1.114-.941-2.891-.068-2.507 1.459 1.321 5.255 5.436 8.79 10.756 9.548 2.618.373 6.802 1.093 7.853 4.018.055.153.098.326.125.486-.016-.153-.016-.145-.001.025.059-.366.005-.302-.162.19-.486.892-.812 1.93-1.15 2.885-.716 2.024-1.24 4.101-1.612 6.215.615-.349 1.23-.698 1.845-1.048-4.84-1.525-9.76.47-13.375 3.735-1.755 1.586-3.979 2.406-6.316 2.66-1.069.116-2.155.125-3.228.052-.317-.022-.633-.053-.949-.09.419.05-.009-.003-.105-.02-1.421-.256-2.568 1.369-1.459 2.507 2.258 2.318 5.121 3.808 8.385 3.95 2.547.11 4.716-.722 7.041-1.595 2.357-.885 5.639-1.458 7.696.309.212.183.098.048.163.198-.263-.605-.002.679.004.73.118.97.263 1.937.448 2.897.385 2.003.941 3.961 1.637 5.877.349-.615.698-1.23 1.048-1.845-4.871 1.071-8.168 5.231-9.648 9.796-.711 2.193-2.068 3.958-3.889 5.368-.915.709-1.926 1.311-2.962 1.826-.173.086-.348.166-.522.25-.074.035-.537.235-.164.078-.13.055-.262.108-.396.156-1.347.484-1.499 2.469 0 2.893 3.121.883 6.352.739 9.254-.773 2.051-1.069 3.579-2.691 4.971-4.494 1.731-2.241 4.216-4.311 7.148-3.984.253.028.037-.041.209.075-.44-.296.498.78.612.929.52.679 1.056 1.345 1.616 1.991 1.335 1.539 2.797 2.954 4.356 4.264 0-.707 0-1.414 0-2.121-3.62 3.311-4.479 8.482-3.513 13.126.468 2.251.278 4.368-.544 6.526-.429 1.126-1.016 2.198-1.675 3.205-.202.308-.412.611-.632.906-.147.198.123-.138-.133.165-.941 1.114-.068 2.891 1.459 2.507 5.255-1.321 8.79-5.436 9.547-10.756.373-2.618 1.093-6.801 4.018-7.853.153-.055.326-.098.486-.125-.153.016-.145.016.025.001-.366-.059-.302-.005.19.162.892.486 1.93.812 2.885 1.15 2.024.716 4.102 1.24 6.215 1.612-.349-.615-.698-1.23-1.048-1.845-1.525 4.84.47 9.76 3.735 13.375 1.586 1.755 2.406 3.979 2.66 6.316.116 1.069.125 2.155.052 3.227-.022.317-.053.633-.09.949.05-.419-.003.009-.02.105-.256 1.421 1.369 2.568 2.507 1.459 2.318-2.258 3.808-5.121 3.95-8.385.11-2.547-.722-4.716-1.595-7.042-.885-2.357-1.458-5.639.309-7.696.183-.212.048-.098.198-.163-.605.263.679.002.73-.004.97-.118 1.937-.263 2.897-.448 2.003-.385 3.961-.941 5.877-1.637-.615-.349-1.23-.698-1.845-1.048 1.071 4.871 5.231 8.168 9.796 9.648 2.193.711 3.958 2.068 5.368 3.889.709.915 1.311 1.926 1.826 2.962.086.173.166.348.25.522.035.074.235.537.078.164.055.13.108.262.156.396.484 1.347 2.469 1.499 2.893 0 .883-3.121.739-6.352-.773-9.254-1.069-2.051-2.691-3.579-4.494-4.971-2.241-1.731-4.311-4.216-3.984-7.148.028-.253-.041-.037.075-.209-.296.44.78-.498.929-.612.679-.52 1.345-1.056 1.991-1.616 1.539-1.335 2.954-2.797 4.264-4.355-.707 0-1.414 0-2.121 0 3.311 3.62 8.482 4.479 13.126 3.513 2.251-.468 4.368-.278 6.526.544 1.126.429 2.198 1.016 3.205 1.675.308.202.611.412.906.632.198.147-.138-.123.165.133 1.114.941 2.891.068 2.507-1.459-1.321-5.255-5.436-8.79-10.756-9.548-2.618-.373-6.801-1.093-7.853-4.018-.055-.153-.098-.326-.125-.486.016.153.016.145.001-.025-.059.366-.005.302.162-.19.486-.892.812-1.93 1.15-2.885.716-2.024 1.24-4.102 1.612-6.215-.615.349-1.23.698-1.845 1.048 4.74 1.493 10.065-.402 13.501-3.854 1.364-1.37-.757-3.492-2.121-2.121-2.708 2.721-6.842 4.261-10.58 3.083-.72-.227-1.708.268-1.845 1.048-.398 2.263-.973 4.484-1.766 6.642-.546 1.485-1.515 2.807-1.127 4.423.714 2.975 3.818 4.837 6.511 5.738 2.505.838 4.78.577 7.192 1.739 2.669 1.286 4.284 3.579 4.998 6.419.836-.486 1.671-.973 2.507-1.459-3.588-3.03-8.559-4.838-13.232-3.867-3.7.769-7.905.423-10.696-2.629-.514-.562-1.616-.602-2.121 0-1.311 1.559-2.726 3.02-4.264 4.355-1.224 1.063-3.079 1.883-3.659 3.456-.985 2.675.382 5.592 1.986 7.71 1.635 2.158 4.061 3.356 5.707 5.478 1.933 2.492 2.296 5.5 1.45 8.491h2.893c-1.53-4.256-4.831-8.335-9.183-9.844-3.721-1.29-7.349-3.458-8.289-7.737-.164-.748-1.111-1.314-1.845-1.048-1.988.722-4.021 1.294-6.101 1.681-1.51.281-3.408.083-4.638 1.098-1.97 1.626-2.412 4.416-2.241 6.83.214 3.014 1.85 5.449 2.278 8.371.462 3.156-.736 5.975-2.986 8.166.836.486 1.671.973 2.507 1.459.745-4.137.119-8.98-2.44-12.396-.909-1.214-1.953-2.235-2.73-3.557-1.454-2.473-2.045-5.237-1.168-8.019.227-.72-.268-1.708-1.048-1.845-2.263-.398-4.484-.973-6.642-1.766-1.485-.546-2.807-1.515-4.423-1.127-2.975.714-4.837 3.818-5.738 6.511-.838 2.505-.577 4.78-1.739 7.192-1.286 2.669-3.579 4.284-6.419 4.998.486.836.973 1.671 1.459 2.507 3.03-3.588 4.838-8.559 3.867-13.232-.769-3.7-.423-7.905 2.629-10.696.562-.514.602-1.616 0-2.121-1.559-1.311-3.02-2.726-4.356-4.264-1.063-1.224-1.883-3.08-3.456-3.659-2.675-.985-5.591.382-7.71 1.987-2.158 1.635-3.357 4.061-5.478 5.707-2.492 1.933-5.5 2.296-8.491 1.45v2.893c4.256-1.53 8.335-4.831 9.844-9.184 1.29-3.721 3.458-7.349 7.737-8.289.748-.164 1.314-1.111 1.048-1.845-.722-1.988-1.294-4.021-1.681-6.101-.281-1.51-.083-3.408-1.098-4.638-1.626-1.97-4.416-2.412-6.83-2.24-3.014.214-5.449 1.85-8.371 2.278-3.156.462-5.975-.736-8.166-2.986-.486.836-.973 1.671-1.459 2.507 4.137.745 8.98.119 12.396-2.44 1.214-.909 2.235-1.953 3.557-2.731 2.473-1.454 5.237-2.045 8.019-1.168.72.227 1.708-.268 1.845-1.048.398-2.263.973-4.484 1.766-6.642.546-1.485 1.515-2.807 1.127-4.423-.714-2.975-3.818-4.837-6.511-5.738-2.505-.838-4.78-.577-7.192-1.739-2.669-1.286-4.284-3.579-4.998-6.419-.836.486-1.671.973-2.507 1.459 3.588 3.03 8.559 4.838 13.232 3.867 3.7-.769 7.905-.423 10.696 2.629.514.562 1.615.602 2.121 0 1.311-1.559 2.726-3.02 4.264-4.356 1.224-1.063 3.08-1.883 3.659-3.456.985-2.675-.382-5.592-1.987-7.71-1.635-2.158-4.061-3.356-5.707-5.478-1.933-2.492-2.296-5.5-1.45-8.491-.964 0-1.929 0-2.893 0 1.53 4.256 4.831 8.335 9.184 9.843 3.721 1.29 7.349 3.458 8.289 7.737.164.748 1.111 1.314 1.845 1.048 1.988-.722 4.021-1.294 6.101-1.681 1.511-.281 3.408-.083 4.638-1.098 1.97-1.627 2.412-4.416 2.24-6.83-.214-3.014-1.85-5.449-2.278-8.371-.462-3.156.736-5.975 2.986-8.166-.836-.486-1.671-.973-2.507-1.459-.745 4.137-.119 8.98 2.44 12.396.909 1.214 1.953 2.235 2.73 3.557 1.454 2.473 2.045 5.237 1.168 8.019-.227.72.268 1.708 1.048 1.845 2.263.398 4.484.973 6.642 1.766 1.485.546 2.807 1.515 4.423 1.127 2.975-.714 4.837-3.818 5.738-6.511.838-2.505.577-4.78 1.739-7.192 1.286-2.669 3.579-4.284 6.419-4.998-.486-.836-.973-1.671-1.459-2.507-3.03 3.588-4.838 8.559-3.867 13.232.769 3.7.423 7.905-2.629 10.696-.562.514-.602 1.615 0 2.121 1.559 1.311 3.02 2.726 4.356 4.264 1.063 1.224 1.883 3.08 3.456 3.659 2.675.985 5.592-.382 7.71-1.987 2.158-1.635 3.356-4.061 5.478-5.707 2.492-1.933 5.5-2.296 8.491-1.45 0-.964 0-1.929 0-2.893-4.256 1.53-8.335 4.831-9.844 9.183-1.29 3.721-3.458 7.349-7.737 8.289-.748.164-1.314 1.111-1.048 1.845.722 1.988 1.294 4.021 1.681 6.101.281 1.51.083 3.408 1.098 4.638 1.627 1.97 4.416 2.412 6.83 2.24 3.014-.214 5.449-1.85 8.371-2.278 3.156-.462 5.975.736 8.166 2.986.486-.836.973-1.671 1.459-2.507-4.623-.832-9.826.084-13.393 3.255-1.444 1.289.684 3.404 2.123 2.125z"/></g></g><g><g><path d="m64 32.708c-13.042.075-24.848 8.293-29.388 20.533-4.544 12.249-.652 26.58 9.44 34.862 10.158 8.336 24.834 9.529 36.119 2.694 11.228-6.801 17.057-20.174 14.497-33.032-2.508-12.595-13.063-22.74-25.774-24.665-1.624-.248-3.252-.383-4.894-.392-1.931-.011-1.933 2.989 0 3 11.696.068 22.517 7.433 26.552 18.487 4.088 11.201.648 23.923-8.473 31.577-9.129 7.66-22.572 8.589-32.735 2.434-10.082-6.107-15.452-18.24-13.084-29.811 2.352-11.493 11.742-20.458 23.307-22.351 1.465-.24 2.951-.328 4.434-.336 1.929-.012 1.933-3.012-.001-3z"/></g></g></g></g><g id="Glyph" display="none"><g display="inline"><circle cx="64" cy="64" r="28.793"/><path d="m125.731 63.3c-5.3-5.62-11.61-3.7-14.08-2.61-1.44.63-2.71 1-3.9 1.11-3.51.36-4.87-.76-5.36-1.42-.28-2.99-.9-5.92-1.84-8.73 6.33-1.99 8.25-9.14 8.32-9.41 1.68-5.39 8.22-7.79 8.29-7.81.4-.15.67-.54.66-.97s-.3-.81-.71-.93c-7.4-2.22-11.91 2.6-13.5 4.78-.93 1.27-1.85 2.22-2.82 2.91-2.87 2.07-4.6 1.78-5.35 1.45-1.74-2.44-3.74-4.67-5.97-6.63 4.49-4.89 2.59-12.05 2.51-12.33-1.24-5.5 3.22-10.84 3.27-10.9.28-.33.32-.8.09-1.17s-.66-.55-1.08-.45c-7.52 1.78-9.01 8.21-9.3 10.89-.18 1.56-.5 2.85-.99 3.93-1.41 3.13-2.97 3.83-3.89 3.93-2.71-1.24-5.57-2.17-8.5-2.75 1.44-6.49-3.79-11.73-3.99-11.94-3.83-4.14-2.63-11-2.62-11.07.08-.42-.13-.85-.51-1.06-.38-.2-.85-.14-1.16.15-5.62 5.3-3.7 11.61-2.61 14.08.63 1.44 1 2.71 1.11 3.9.36 3.52-.76 4.87-1.42 5.36-2.99.28-5.92.9-8.73 1.84-1.99-6.33-9.14-8.25-9.41-8.32-5.39-1.68-7.79-8.22-7.81-8.29-.15-.4-.54-.68-.97-.66-.43.01-.81.3-.93.71-2.22 7.4 2.6 11.91 4.78 13.5 1.27.93 2.22 1.85 2.91 2.82 2.07 2.87 1.78 4.6 1.45 5.35-2.44 1.74-4.67 3.74-6.63 5.97-4.89-4.49-12.05-2.59-12.33-2.51-5.5 1.24-10.84-3.22-10.9-3.27-.33-.28-.8-.31-1.17-.09-.37.23-.55.66-.45 1.08 1.78 7.52 8.21 9.01 10.89 9.3 1.56.18 2.85.5 3.93.99 3.13 1.41 3.83 2.97 3.93 3.89-1.24 2.71-2.17 5.57-2.75 8.5-6.49-1.44-11.73 3.79-11.94 3.99-4.14 3.83-11 2.63-11.07 2.62-.42-.08-.85.13-1.06.51-.2.38-.14.85.15 1.16 5.3 5.62 11.61 3.7 14.08 2.61 1.44-.63 2.71-1 3.9-1.11 3.52-.36 4.87.76 5.36 1.42.28 2.99.9 5.92 1.84 8.73-6.33 1.99-8.25 9.14-8.32 9.41-1.68 5.39-8.22 7.79-8.29 7.81-.4.15-.67.54-.66.97s.3.81.71.93c7.4 2.22 11.91-2.6 13.5-4.78.93-1.27 1.85-2.22 2.82-2.91 2.87-2.07 4.6-1.78 5.35-1.45 1.74 2.44 3.74 4.67 5.97 6.63-4.49 4.89-2.59 12.05-2.51 12.33 1.24 5.5-3.22 10.84-3.27 10.9-.28.33-.32.8-.09 1.17s.66.55 1.08.45c7.52-1.78 9.01-8.21 9.3-10.89.18-1.56.5-2.85.99-3.93 1.41-3.13 2.97-3.83 3.89-3.93 2.71 1.24 5.57 2.17 8.5 2.75-1.44 6.49 3.79 11.73 3.99 11.94 3.83 4.14 2.63 11 2.62 11.07-.08.42.13.85.51 1.06.15.08.31.12.48.12.24 0 .49-.09.68-.27 5.62-5.3 3.7-11.61 2.61-14.08-.63-1.44-1-2.71-1.11-3.9-.36-3.52.76-4.87 1.42-5.36 2.99-.28 5.92-.9 8.73-1.84 1.99 6.33 9.14 8.25 9.41 8.32 5.39 1.68 7.79 8.22 7.81 8.29.15.4.55.69.97.66.43-.01.81-.3.93-.71 2.22-7.4-2.6-11.91-4.78-13.5-1.27-.93-2.22-1.85-2.91-2.82-2.07-2.87-1.78-4.6-1.45-5.35 2.44-1.74 4.67-3.74 6.63-5.97 4.89 4.49 12.05 2.59 12.33 2.51 5.5-1.24 10.84 3.22 10.9 3.27.33.28.8.31 1.17.09.37-.23.55-.66.45-1.08-1.78-7.52-8.21-9.01-10.89-9.3-1.56-.18-2.85-.5-3.93-.99-3.13-1.41-3.83-2.97-3.93-3.89 1.24-2.71 2.17-5.57 2.75-8.5 6.36 1.41 11.54-3.59 11.95-4 4.15-3.82 10.99-2.62 11.06-2.61.42.08.85-.13 1.06-.51.2-.38.14-.85-.15-1.16zm-61.731 31.493c-16.979 0-30.793-13.814-30.793-30.793s13.814-30.793 30.793-30.793 30.793 13.814 30.793 30.793-13.814 30.793-30.793 30.793z"/></g></g><g id="Line_color"><g><g><path d="m113.067 66.854c4.58-4.226 11.933-2.869 11.933-2.869-4.786-5.075-10.428-3.491-12.95-2.382-1.339.589-2.742 1.05-4.198 1.196-4.294.431-5.879-1.151-6.435-2.08-.295-3.403-1.036-6.677-2.177-9.76 6.686-1.352 8.681-9.021 8.681-9.021 1.853-5.95 8.9-8.451 8.9-8.451-6.683-2.002-10.777 2.191-12.406 4.412-.865 1.18-1.85 2.281-3.037 3.135-3.501 2.519-5.665 1.943-6.612 1.417-1.925-2.743-4.201-5.221-6.773-7.358 5.123-4.513 3.014-12.159 3.014-12.159-1.37-6.079 3.482-11.769 3.482-11.769-6.788 1.607-8.238 7.286-8.538 10.024-.16 1.454-.462 2.9-1.063 4.234-1.763 3.91-3.911 4.509-5 4.533-2.994-1.399-6.202-2.413-9.563-2.983 2.182-6.471-3.469-12.039-3.469-12.039-4.228-4.58-2.871-11.934-2.871-11.934-5.075 4.786-3.491 10.428-2.382 12.95.589 1.339 1.05 2.742 1.196 4.198.431 4.294-1.151 5.879-2.08 6.435-3.403.295-6.677 1.036-9.76 2.177-1.352-6.686-9.021-8.681-9.021-8.681-5.95-1.853-8.451-8.9-8.451-8.9-2.002 6.683 2.191 10.777 4.412 12.406 1.18.865 2.281 1.85 3.135 3.037 2.519 3.501 1.943 5.664 1.417 6.611-2.743 1.925-5.221 4.201-7.358 6.773-4.513-5.123-12.159-3.014-12.159-3.014-6.079 1.37-11.769-3.482-11.769-3.482 1.607 6.788 7.286 8.238 10.024 8.538 1.454.16 2.9.462 4.234 1.063 3.911 1.763 4.509 3.911 4.533 5-1.399 2.994-2.413 6.202-2.983 9.563-6.471-2.182-12.039 3.469-12.039 3.469-4.58 4.229-11.934 2.872-11.934 2.872 4.786 5.075 10.428 3.491 12.95 2.382 1.339-.589 2.742-1.05 4.198-1.196 4.294-.431 5.879 1.151 6.435 2.08.295 3.403 1.036 6.677 2.177 9.759-6.686 1.352-8.681 9.021-8.681 9.021-1.853 5.95-8.9 8.451-8.9 8.451 6.683 2.002 10.777-2.191 12.406-4.412.865-1.18 1.85-2.281 3.037-3.135 3.501-2.519 5.664-1.943 6.611-1.417 1.925 2.743 4.201 5.221 6.773 7.358-5.123 4.513-3.014 12.159-3.014 12.159 1.37 6.079-3.482 11.769-3.482 11.769 6.788-1.607 8.238-7.286 8.538-10.024.16-1.454.462-2.9 1.063-4.234 1.763-3.91 3.911-4.509 5-4.533 2.994 1.4 6.202 2.413 9.563 2.983-2.182 6.471 3.469 12.039 3.469 12.039 4.226 4.58 2.869 11.933 2.869 11.933 5.075-4.786 3.491-10.428 2.382-12.95-.589-1.339-1.05-2.742-1.196-4.198-.431-4.294 1.151-5.879 2.08-6.435 3.403-.295 6.677-1.036 9.759-2.177 1.352 6.686 9.021 8.681 9.021 8.681 5.95 1.853 8.451 8.9 8.451 8.9 2.002-6.683-2.191-10.777-4.412-12.406-1.18-.865-2.281-1.85-3.135-3.037-2.519-3.501-1.943-5.665-1.417-6.612 2.743-1.925 5.221-4.201 7.358-6.773 4.513 5.123 12.159 3.014 12.159 3.014 6.079-1.37 11.769 3.482 11.769 3.482-1.607-6.788-7.286-8.238-10.024-8.538-1.454-.16-2.9-.462-4.234-1.063-3.91-1.763-4.509-3.911-4.533-5 1.4-2.994 2.413-6.202 2.983-9.563 6.475 2.182 12.044-3.469 12.044-3.469z" fill="#e0c658"/><g><path d="m114.127 67.915c1.896-1.685 4.406-2.442 6.904-2.599.9-.057 1.804-.051 2.703.02.162.013.987.103.578.051.097.012.193.028.289.045 1.421.256 2.568-1.369 1.459-2.507-2.258-2.318-5.121-3.808-8.385-3.95-2.547-.11-4.716.722-7.042 1.595-2.358.885-5.639 1.458-7.696-.309-.212-.182-.098-.048-.163-.198.263.605.002-.679-.004-.73-.118-.97-.263-1.937-.448-2.897-.385-2.003-.941-3.961-1.637-5.877-.349.615-.698 1.23-1.048 1.845 4.871-1.071 8.168-5.231 9.648-9.796.711-2.193 2.068-3.958 3.889-5.368.915-.709 1.926-1.311 2.962-1.826.173-.086.348-.166.522-.25.074-.035.537-.235.164-.078.13-.055.262-.108.396-.156 1.347-.484 1.499-2.469 0-2.893-3.121-.883-6.352-.739-9.254.773-2.051 1.069-3.579 2.691-4.971 4.494-1.731 2.241-4.216 4.311-7.148 3.984-.253-.028-.037.041-.209-.075.44.296-.498-.78-.612-.929-.52-.679-1.056-1.345-1.616-1.991-1.335-1.539-2.797-2.954-4.356-4.264v2.121c3.62-3.311 4.479-8.482 3.513-13.126-.468-2.251-.278-4.368.544-6.526.429-1.126 1.016-2.198 1.675-3.205.202-.308.412-.611.632-.906.147-.198-.123.138.133-.165.941-1.114.068-2.891-1.459-2.507-5.255 1.321-8.79 5.436-9.548 10.756-.373 2.618-1.093 6.801-4.018 7.853-.153.055-.326.098-.486.125.153-.016.145-.016-.025-.001.366.059.302.005-.19-.162-.892-.486-1.93-.812-2.885-1.15-2.024-.716-4.102-1.24-6.215-1.612.349.615.698 1.23 1.048 1.845 1.525-4.84-.47-9.76-3.735-13.375-1.586-1.755-2.406-3.979-2.66-6.316-.116-1.069-.125-2.155-.052-3.228.022-.317.053-.633.09-.949-.05.419.003-.009.02-.105.256-1.421-1.369-2.568-2.507-1.459-2.318 2.258-3.808 5.121-3.95 8.385-.11 2.547.722 4.716 1.595 7.042.885 2.357 1.458 5.639-.309 7.696-.182.212-.048.098-.198.163.605-.263-.679-.002-.73.004-.97.118-1.937.263-2.897.448-2.003.385-3.961.941-5.877 1.637.615.349 1.23.698 1.845 1.048-1.071-4.871-5.231-8.168-9.796-9.648-2.193-.711-3.958-2.068-5.368-3.889-.709-.915-1.311-1.926-1.826-2.962-.086-.173-.166-.348-.25-.522-.035-.074-.235-.537-.078-.164-.055-.13-.108-.262-.156-.396-.484-1.347-2.469-1.499-2.893 0-.883 3.121-.739 6.352.773 9.254 1.069 2.051 2.691 3.579 4.494 4.971 2.241 1.731 4.311 4.216 3.984 7.148-.028.253.041.037-.075.209.296-.44-.78.498-.929.612-.679.52-1.345 1.056-1.991 1.616-1.539 1.335-2.954 2.797-4.264 4.356h2.121c-3.311-3.62-8.482-4.479-13.126-3.513-2.251.468-4.368.278-6.526-.544-1.126-.429-2.198-1.016-3.205-1.675-.308-.202-.611-.412-.906-.632-.198-.147.138.123-.165-.133-1.114-.941-2.891-.068-2.507 1.459 1.321 5.255 5.436 8.79 10.756 9.548 2.618.373 6.802 1.093 7.853 4.018.055.153.098.326.125.486-.016-.153-.016-.145-.001.025.059-.366.005-.302-.162.19-.486.892-.812 1.93-1.15 2.885-.716 2.024-1.24 4.101-1.612 6.215.615-.349 1.23-.698 1.845-1.048-4.84-1.525-9.76.47-13.375 3.735-1.755 1.586-3.979 2.406-6.316 2.66-1.069.116-2.155.125-3.228.052-.317-.022-.633-.053-.949-.09.419.05-.009-.003-.105-.02-1.421-.256-2.568 1.369-1.459 2.507 2.258 2.318 5.121 3.808 8.385 3.95 2.547.11 4.716-.722 7.041-1.595 2.357-.885 5.639-1.458 7.696.309.212.183.098.048.163.198-.263-.605-.002.679.004.73.118.97.263 1.937.448 2.897.385 2.003.941 3.961 1.637 5.877.349-.615.698-1.23 1.048-1.845-4.871 1.071-8.168 5.231-9.648 9.796-.711 2.193-2.068 3.958-3.889 5.368-.915.709-1.926 1.311-2.962 1.826-.173.086-.348.166-.522.25-.074.035-.537.235-.164.078-.13.055-.262.108-.396.156-1.347.484-1.499 2.469 0 2.893 3.121.883 6.352.739 9.254-.773 2.051-1.069 3.579-2.691 4.971-4.494 1.731-2.241 4.216-4.311 7.148-3.984.253.028.037-.041.209.075-.44-.296.498.78.612.929.52.679 1.056 1.345 1.616 1.991 1.335 1.539 2.797 2.954 4.356 4.264 0-.707 0-1.414 0-2.121-3.62 3.311-4.479 8.482-3.513 13.126.468 2.251.278 4.368-.544 6.526-.429 1.126-1.016 2.198-1.675 3.205-.202.308-.412.611-.632.906-.147.198.123-.138-.133.165-.941 1.114-.068 2.891 1.459 2.507 5.255-1.321 8.79-5.436 9.547-10.756.373-2.618 1.093-6.801 4.018-7.853.153-.055.326-.098.486-.125-.153.016-.145.016.025.001-.366-.059-.302-.005.19.162.892.486 1.93.812 2.885 1.15 2.024.716 4.102 1.24 6.215 1.612-.349-.615-.698-1.23-1.048-1.845-1.525 4.84.47 9.76 3.735 13.375 1.586 1.755 2.406 3.979 2.66 6.316.116 1.069.125 2.155.052 3.227-.022.317-.053.633-.09.949.05-.419-.003.009-.02.105-.256 1.421 1.369 2.568 2.507 1.459 2.318-2.258 3.808-5.121 3.95-8.385.11-2.547-.722-4.716-1.595-7.042-.885-2.357-1.458-5.639.309-7.696.183-.212.048-.098.198-.163-.605.263.679.002.73-.004.97-.118 1.937-.263 2.897-.448 2.003-.385 3.961-.941 5.877-1.637-.615-.349-1.23-.698-1.845-1.048 1.071 4.871 5.231 8.168 9.796 9.648 2.193.711 3.958 2.068 5.368 3.889.709.915 1.311 1.926 1.826 2.962.086.173.166.348.25.522.035.074.235.537.078.164.055.13.108.262.156.396.484 1.347 2.469 1.499 2.893 0 .883-3.121.739-6.352-.773-9.254-1.069-2.051-2.691-3.579-4.494-4.971-2.241-1.731-4.311-4.216-3.984-7.148.028-.253-.041-.037.075-.209-.296.44.78-.498.929-.612.679-.52 1.345-1.056 1.991-1.616 1.539-1.335 2.954-2.797 4.264-4.355-.707 0-1.414 0-2.121 0 3.311 3.62 8.482 4.479 13.126 3.513 2.251-.468 4.368-.278 6.526.544 1.126.429 2.198 1.016 3.205 1.675.308.202.611.412.906.632.198.147-.138-.123.165.133 1.114.941 2.891.068 2.507-1.459-1.321-5.255-5.436-8.79-10.756-9.548-2.618-.373-6.801-1.093-7.853-4.018-.055-.153-.098-.326-.125-.486.016.153.016.145.001-.025-.059.366-.005.302.162-.19.486-.892.812-1.93 1.15-2.885.716-2.024 1.24-4.102 1.612-6.215-.615.349-1.23.698-1.845 1.048 4.74 1.493 10.065-.402 13.501-3.854 1.364-1.37-.757-3.492-2.121-2.121-2.708 2.721-6.842 4.261-10.58 3.083-.72-.227-1.708.268-1.845 1.048-.398 2.263-.973 4.484-1.766 6.642-.546 1.485-1.515 2.807-1.127 4.423.714 2.975 3.818 4.837 6.511 5.738 2.505.838 4.78.577 7.192 1.739 2.669 1.286 4.284 3.579 4.998 6.419.836-.486 1.671-.973 2.507-1.459-3.588-3.03-8.559-4.838-13.232-3.867-3.7.769-7.905.423-10.696-2.629-.514-.562-1.616-.602-2.121 0-1.311 1.559-2.726 3.02-4.264 4.355-1.224 1.063-3.079 1.883-3.659 3.456-.985 2.675.382 5.592 1.986 7.71 1.635 2.158 4.061 3.356 5.707 5.478 1.933 2.492 2.296 5.5 1.45 8.491h2.893c-1.53-4.256-4.831-8.335-9.183-9.844-3.721-1.29-7.349-3.458-8.289-7.737-.164-.748-1.111-1.314-1.845-1.048-1.988.722-4.021 1.294-6.101 1.681-1.51.281-3.408.083-4.638 1.098-1.97 1.626-2.412 4.416-2.241 6.83.214 3.014 1.85 5.449 2.278 8.371.462 3.156-.736 5.975-2.986 8.166.836.486 1.671.973 2.507 1.459.745-4.137.119-8.98-2.44-12.396-.909-1.214-1.953-2.235-2.73-3.557-1.454-2.473-2.045-5.237-1.168-8.019.227-.72-.268-1.708-1.048-1.845-2.263-.398-4.484-.973-6.642-1.766-1.485-.546-2.807-1.515-4.423-1.127-2.975.714-4.837 3.818-5.738 6.511-.838 2.505-.577 4.78-1.739 7.192-1.286 2.669-3.579 4.284-6.419 4.998.486.836.973 1.671 1.459 2.507 3.03-3.588 4.838-8.559 3.867-13.232-.769-3.7-.423-7.905 2.629-10.696.562-.514.602-1.616 0-2.121-1.559-1.311-3.02-2.726-4.356-4.264-1.063-1.224-1.883-3.08-3.456-3.659-2.675-.985-5.591.382-7.71 1.987-2.158 1.635-3.357 4.061-5.478 5.707-2.492 1.933-5.5 2.296-8.491 1.45v2.893c4.256-1.53 8.335-4.831 9.844-9.184 1.29-3.721 3.458-7.349 7.737-8.289.748-.164 1.314-1.111 1.048-1.845-.722-1.988-1.294-4.021-1.681-6.101-.281-1.51-.083-3.408-1.098-4.638-1.626-1.97-4.416-2.412-6.83-2.24-3.014.214-5.449 1.85-8.371 2.278-3.156.462-5.975-.736-8.166-2.986-.486.836-.973 1.671-1.459 2.507 4.137.745 8.98.119 12.396-2.44 1.214-.909 2.235-1.953 3.557-2.731 2.473-1.454 5.237-2.045 8.019-1.168.72.227 1.708-.268 1.845-1.048.398-2.263.973-4.484 1.766-6.642.546-1.485 1.515-2.807 1.127-4.423-.714-2.975-3.818-4.837-6.511-5.738-2.505-.838-4.78-.577-7.192-1.739-2.669-1.286-4.284-3.579-4.998-6.419-.836.486-1.671.973-2.507 1.459 3.588 3.03 8.559 4.838 13.232 3.867 3.7-.769 7.905-.423 10.696 2.629.514.562 1.615.602 2.121 0 1.311-1.559 2.726-3.02 4.264-4.356 1.224-1.063 3.08-1.883 3.659-3.456.985-2.675-.382-5.592-1.987-7.71-1.635-2.158-4.061-3.356-5.707-5.478-1.933-2.492-2.296-5.5-1.45-8.491-.964 0-1.929 0-2.893 0 1.53 4.256 4.831 8.335 9.184 9.843 3.721 1.29 7.349 3.458 8.289 7.737.164.748 1.111 1.314 1.845 1.048 1.988-.722 4.021-1.294 6.101-1.681 1.511-.281 3.408-.083 4.638-1.098 1.97-1.627 2.412-4.416 2.24-6.83-.214-3.014-1.85-5.449-2.278-8.371-.462-3.156.736-5.975 2.986-8.166-.836-.486-1.671-.973-2.507-1.459-.745 4.137-.119 8.98 2.44 12.396.909 1.214 1.953 2.235 2.73 3.557 1.454 2.473 2.045 5.237 1.168 8.019-.227.72.268 1.708 1.048 1.845 2.263.398 4.484.973 6.642 1.766 1.485.546 2.807 1.515 4.423 1.127 2.975-.714 4.837-3.818 5.738-6.511.838-2.505.577-4.78 1.739-7.192 1.286-2.669 3.579-4.284 6.419-4.998-.486-.836-.973-1.671-1.459-2.507-3.03 3.588-4.838 8.559-3.867 13.232.769 3.7.423 7.905-2.629 10.696-.562.514-.602 1.615 0 2.121 1.559 1.311 3.02 2.726 4.356 4.264 1.063 1.224 1.883 3.08 3.456 3.659 2.675.985 5.592-.382 7.71-1.987 2.158-1.635 3.356-4.061 5.478-5.707 2.492-1.933 5.5-2.296 8.491-1.45 0-.964 0-1.929 0-2.893-4.256 1.53-8.335 4.831-9.844 9.183-1.29 3.721-3.458 7.349-7.737 8.289-.748.164-1.314 1.111-1.048 1.845.722 1.988 1.294 4.021 1.681 6.101.281 1.51.083 3.408 1.098 4.638 1.627 1.97 4.416 2.412 6.83 2.24 3.014-.214 5.449-1.85 8.371-2.278 3.156-.462 5.975.736 8.166 2.986.486-.836.973-1.671 1.459-2.507-4.623-.832-9.826.084-13.393 3.255-1.444 1.289.684 3.404 2.123 2.125z"/></g></g><g><circle cx="64" cy="64" fill="#efd256" r="29.792"/><g><path d="m64 32.708c-13.042.075-24.848 8.293-29.388 20.533-4.544 12.249-.652 26.58 9.44 34.862 10.158 8.336 24.834 9.529 36.119 2.694 11.228-6.801 17.057-20.174 14.497-33.032-2.508-12.595-13.063-22.74-25.774-24.665-1.624-.248-3.252-.383-4.894-.392-1.931-.011-1.933 2.989 0 3 11.696.068 22.517 7.433 26.552 18.487 4.088 11.201.648 23.923-8.473 31.577-9.129 7.66-22.572 8.589-32.735 2.434-10.082-6.107-15.452-18.24-13.084-29.811 2.352-11.493 11.742-20.458 23.307-22.351 1.465-.24 2.951-.328 4.434-.336 1.929-.012 1.933-3.012-.001-3z"/></g></g></g></g><g id="Flat" display="none"><path d="m113.871 66.901c4.655-4.295 12.129-2.916 12.129-2.916-4.865-5.158-10.599-3.549-13.163-2.421-1.361.599-2.787 1.067-4.267 1.216-4.364.438-5.976-1.17-6.541-2.114-.299-3.458-1.053-6.787-2.213-9.92 6.795-1.374 8.823-9.169 8.823-9.169 1.883-6.047 9.046-8.59 9.046-8.59-6.792-2.035-10.954 2.226-12.61 4.484-.88 1.199-1.88 2.318-3.087 3.186-3.558 2.56-5.757 1.975-6.72 1.44-1.956-2.788-4.27-5.307-6.884-7.479 5.207-4.587 3.063-12.358 3.063-12.358-1.393-6.179 3.539-11.962 3.539-11.962-6.9 1.634-8.373 7.405-8.678 10.189-.162 1.478-.469 2.947-1.08 4.303-1.792 3.974-3.975 4.583-5.082 4.607-3.043-1.422-6.304-2.453-9.72-3.032 2.218-6.577-3.526-12.237-3.526-12.237-4.295-4.654-2.915-12.128-2.915-12.128-5.158 4.865-3.549 10.599-2.421 13.163.599 1.361 1.067 2.787 1.216 4.267.438 4.364-1.17 5.976-2.114 6.541-3.459.299-6.787 1.053-9.92 2.213-1.374-6.795-9.169-8.823-9.169-8.823-6.047-1.883-8.59-9.046-8.59-9.046-2.035 6.792 2.227 10.954 4.484 12.61 1.199.88 2.318 1.88 3.187 3.087 2.56 3.558 1.975 5.757 1.44 6.72-2.788 1.957-5.307 4.27-7.479 6.884-4.587-5.207-12.358-3.063-12.358-3.063-6.179 1.393-11.962-3.539-11.962-3.539 1.634 6.9 7.405 8.373 10.189 8.678 1.478.162 2.947.469 4.303 1.08 3.975 1.792 4.583 3.975 4.607 5.082-1.422 3.043-2.453 6.304-3.032 9.72-6.577-2.218-12.237 3.526-12.237 3.526-4.655 4.295-12.129 2.915-12.129 2.915 4.865 5.158 10.599 3.549 13.163 2.421 1.361-.599 2.787-1.067 4.267-1.216 4.364-.438 5.976 1.17 6.541 2.114.299 3.458 1.053 6.787 2.213 9.919-6.795 1.374-8.823 9.169-8.823 9.169-1.883 6.047-9.046 8.59-9.046 8.59 6.792 2.035 10.954-2.227 12.61-4.484.88-1.199 1.88-2.318 3.087-3.187 3.558-2.56 5.757-1.975 6.72-1.44 1.956 2.788 4.27 5.307 6.884 7.479-5.207 4.587-3.063 12.358-3.063 12.358 1.393 6.179-3.539 11.962-3.539 11.962 6.9-1.634 8.373-7.405 8.678-10.189.162-1.478.469-2.947 1.08-4.303 1.792-3.975 3.975-4.583 5.082-4.607 3.043 1.423 6.304 2.453 9.72 3.032-2.218 6.577 3.526 12.237 3.526 12.237 4.294 4.656 2.915 12.13 2.915 12.13 5.158-4.865 3.549-10.599 2.421-13.163-.599-1.361-1.067-2.787-1.216-4.267-.438-4.365 1.17-5.976 2.115-6.541 3.458-.299 6.786-1.053 9.919-2.213 1.374 6.795 9.169 8.823 9.169 8.823 6.047 1.883 8.59 9.046 8.59 9.046 2.035-6.792-2.226-10.954-4.484-12.61-1.199-.88-2.318-1.88-3.186-3.087-2.56-3.559-1.975-5.758-1.44-6.72 2.788-1.956 5.306-4.27 7.479-6.884 4.587 5.207 12.358 3.063 12.358 3.063 6.179-1.393 11.962 3.539 11.962 3.539-1.634-6.9-7.405-8.373-10.189-8.678-1.478-.162-2.947-.469-4.303-1.08-3.974-1.792-4.583-3.975-4.607-5.082 1.423-3.043 2.453-6.304 3.032-9.72 6.576 2.219 12.236-3.525 12.236-3.525z" display="inline" fill="#e0c658"/><circle cx="64" cy="64" display="inline" fill="#efd256" r="30.281"/></g></svg>